<svg xmlns="http://www.w3.org/2000/svg" viewBox="0 0 2520 1530">
    <defs>
        <linearGradient
                id="bevel"
                x1="693.03" x2="693.59"
                y1="823.515" y2="917.459"
                gradientUnits="userSpaceOnUse"
        >
            <stop offset="0" stop-color="#333" />
            <stop offset="0.088" stop-color="#aaa" />
            <stop offset="0.75" stop-color="#aaa" />
            <stop offset="1" stop-color="#333" />
        </linearGradient>

        <filter
                id="shadow"
                x="-0.139" y="-0.891"
                width="1.277" height="2.782"
                color-interpolation-filters="sRGB"
        >
            <feGaussianBlur stdDeviation="50.255" />
        </filter>

        <path
                id="shadow-oval"
                d="M1217.234 667.015c0 37.379-194.698 67.68-434.87 67.68-240.173 0-434.872-30.301-434.872-67.68 0-37.379 194.699-67.68 434.871-67.68 240.173 0 434.87 30.301 434.87 67.68z"
        />
    </defs>

    <use
            href="#shadow-oval"
            fill="#1a1a1a"
            fill-opacity="0.667"
            filter="url(#shadow)"
            transform="matrix(2.02914 0 0 .71847 -49.924 821.7)"
    />

    <g transform="matrix(3.2252 0 0 3.2252 -553.996 -1612.41)">
        <path
                fill="url(#bevel)"
                d="M640.5 823.112c-1.01 42.427-50 94.75-50 94.75H809s-48.99-52.323-50-94.75l-56.22.25z"
                transform="translate(-51.232)"
        />
        <rect
                x="387.899" y="513.951"
                width="521.239" height="309.107"
                rx="19.041" ry="18.269"
                stroke="#aaa" stroke-width="1.55"
        />
        <path fill="#fff" d="M408.518 533.504h480v270h-480z" />
        <path fill="#aaa" d="M538.664 909.931h219.708v9.091H538.664z" />
    </g>

    <use
            href="#shadow-oval"
            fill="#1a1a1a"
            fill-opacity="0.667"
            filter="url(#shadow)"
            transform="matrix(.85876 0 0 .71847 92.26 906.991)"
    />
    <g transform="matrix(3.2252 0 0 3.2252 -367.88 -1606.204)">
        <rect
                x="247.143" y="671.362"
                width="200" height="266"
                rx="20" ry="20"
                stroke="#aaa" stroke-width="0.93"
        />
        <path fill="#fff" d="M263.643 687.362h167v222h-167z" />
    </g>

    <use
            href="#shadow-oval"
            fill="#1a1a1a"
            fill-opacity="0.667"
            filter="url(#shadow)"
            transform="matrix(.34001 0 0 .71847 87.614 959.77)"
    />
    <g transform="translate(-767.574 -2230.898) scale(3.99062)">
        <rect
                x="247.143" y="797.077"
                width="70" height="130.286"
                rx="7" ry="9.796"
                stroke="#aaa" stroke-width="0.752"
        />
        <path fill="#fff" d="M252.143 805.219h60v106h-60z" />
    </g>
</svg>