<svg xmlns="http://www.w3.org/2000/svg" xmlns:xlink="http://www.w3.org/1999/xlink" viewBox="0 0 2520 1530">
    <defs>
        <linearGradient id="a">
            <stop offset="0" stop-color="#333"/>
            <stop offset=".088" stop-color="#aaa"/>
            <stop offset=".75" stop-color="#aaa"/>
            <stop offset="1" stop-color="#333"/>
        </linearGradient>
        <linearGradient xlink:href="#a" id="d" x1="693.03" x2="693.59" y1="823.515" y2="917.459" gradientUnits="userSpaceOnUse"/>
        <linearGradient xlink:href="#a" id="c" x1="693.03" x2="693.59" y1="823.515" y2="917.459" gradientUnits="userSpaceOnUse"/>
        <filter id="b" width="1.277" height="2.782" x="-.139" y="-.891" color-interpolation-filters="sRGB">
            <feGaussianBlur stdDeviation="50.255"/>
        </filter>
        <filter id="e" width="1.277" height="2.782" x="-.139" y="-.891" color-interpolation-filters="sRGB">
            <feGaussianBlur stdDeviation="50.255"/>
        </filter>
        <filter id="f" width="1.277" height="2.782" x="-.139" y="-.891" color-interpolation-filters="sRGB">
            <feGaussianBlur stdDeviation="50.255"/>
        </filter>
    </defs>
    <path fill="#1a1a1a" fill-opacity=".667" d="M1217.234 667.015c0 37.379-194.698 67.68-434.87 67.68-240.173 0-434.872-30.301-434.872-67.68 0-37.379 194.699-67.68 434.871-67.68 240.173 0 434.87 30.301 434.87 67.68z" color="#000" enable-background="accumulate" filter="url(#b)" overflow="visible" style="marker:none" transform="matrix(2.02914 0 0 .71847 -49.924 821.7)"/>
    <g transform="matrix(3.2252 0 0 3.2252 -553.996 -1612.41)">
        <path fill="url(#d)" d="M640.5 823.112c-1.01 42.427-50 94.75-50 94.75H809s-48.99-52.323-50-94.75l-56.22.25z" color="#000" enable-background="accumulate" overflow="visible" style="marker:none" transform="translate(-51.232)"/>
        <rect width="521.239" height="309.107" x="387.899" y="513.951" stroke="#aaa" stroke-width="1.55" color="#000" enable-background="accumulate" overflow="visible" rx="19.041" ry="18.269" style="marker:none"/>
        <path fill="#fff" d="M408.518 533.504h480v270h-480z" color="#000" enable-background="accumulate" overflow="visible" style="marker:none"/>
        <path fill="#aaa" d="M538.664 909.931h219.708v9.091H538.664z" color="#000" enable-background="accumulate" overflow="visible" style="marker:none"/>
    </g>
    <g color="#000">
        <path fill="#1a1a1a" fill-opacity=".667" d="M1217.234 667.015c0 37.379-194.698 67.68-434.87 67.68-240.173 0-434.872-30.301-434.872-67.68 0-37.379 194.699-67.68 434.871-67.68 240.173 0 434.87 30.301 434.87 67.68z" enable-background="accumulate" filter="url(#e)" overflow="visible" style="marker:none" transform="matrix(.85876 0 0 .71847 92.26 906.991)"/>
        <g transform="matrix(3.2252 0 0 3.2252 -367.88 -1606.204)">
            <rect width="200" height="266" x="247.143" y="671.362" stroke="#aaa" stroke-width=".93" enable-background="accumulate" overflow="visible" rx="20" ry="20" style="marker:none"/>
            <path fill="#fff" d="M263.643 687.362h167v222h-167z" enable-background="accumulate" overflow="visible" style="marker:none"/>
        </g>
    </g>
    <path fill="#1a1a1a" fill-opacity=".667" d="M1217.234 667.015c0 37.379-194.698 67.68-434.87 67.68-240.173 0-434.872-30.301-434.872-67.68 0-37.379 194.699-67.68 434.871-67.68 240.173 0 434.87 30.301 434.87 67.68z" color="#000" enable-background="accumulate" filter="url(#f)" overflow="visible" style="marker:none" transform="matrix(.34001 0 0 .71847 87.614 959.77)"/>
    <g color="#000" transform="translate(-767.574 -2230.898) scale(3.99062)">
        <rect width="70" height="130.286" x="247.143" y="797.077" stroke="#aaa" stroke-width=".752" enable-background="accumulate" overflow="visible" rx="7" ry="9.796" style="marker:none"/>
        <path fill="#fff" d="M252.143 805.219h60v106h-60z" enable-background="accumulate" overflow="visible" style="marker:none"/>
    </g>
</svg>