<svg xmlns="http://www.w3.org/2000/svg" viewBox="0 0 48 48" width="480" height="480">
    <defs>
        <!-- heart symbol definition without viewBox -->
        <symbol id="heart">
            <path
                    d="M12 21.35
           L10.55 20.03
           C5.4 15.36 2 12.28 2 8.5
           C2 5.42 4.42 3 7.5 3
           C9.24 3 10.91 3.81 12 7
           C13.09 3.81 14.76 3 16.5 3
           C19.58 3 22 5.42 22 8.5
           C22 12.28 18.6 15.36 13.45 20.03
           L12 21.35
           Z"
                    stroke-linecap="round"
                    stroke-linejoin="round"
                    stroke-width="1"
            />
            <!-- Y shape at bottom tip, inheriting stroke from use -->
            <g stroke-linecap="round" stroke-linejoin="round" stroke-width="1">
                <line x1="12" y1="21.35" x2="12" y2="14" />
                <line x1="12" y1="14" x2="8" y2="10" />
                <line x1="12" y1="14" x2="16" y2="10" />
            </g>
        </symbol>
    </defs>

    <!-- Four hearts forming a clover, tips touching at center with distinct colors -->
    <g>
        <!-- animated rotation of whole clover -->
        <animateTransform attributeName="transform"
                          type="rotate"
                          from="0 24 24"
                          to="360 24 24"
                          dur="10s"
                          repeatCount="indefinite"/>
        <use href="#heart" transform="translate(24 24) rotate(0) translate(-12 -21.85)" fill="#D2691E" stroke="#8B4513" />
        <use href="#heart" transform="translate(24 24) rotate(90) translate(-12 -21.85)" fill="#FFD700" stroke="#B8860B" />
        <use href="#heart" transform="translate(24 24) rotate(180) translate(-12 -21.85)" fill="#FF0800" stroke="#B22222" />
        <use href="#heart" transform="translate(24 24) rotate(270) translate(-12 -21.85)" fill="#40E0D0" stroke="#20B2AA" />
    </g>
</svg>
