<svg
  xmlns="http://www.w3.org/2000/svg"
  viewBox="0 0 220 220"
  width="220"
  height="220"
  role="img"
  aria-label="Spinning monochrome world map globe"
>
  <defs><clipPath id="globe-clip"><circle cx="110" cy="110" r="92" /></clipPath><filter id="sphere-warp" x="18" y="18" width="184" height="184" filterUnits="userSpaceOnUse" primitiveUnits="userSpaceOnUse" color-interpolation-filters="sRGB"><feImage result="warp" x="18" y="18" width="184" height="184" preserveAspectRatio="none" href="data:image/svg+xml,%3Csvg%20xmlns=%27http://www.w3.org/2000/svg%27%20viewBox=%270%200%20184%20184%27%3E%3Crect%20x=%270.00%27%20y=%270%27%20width=%272.62%27%20height=%27184%27%20fill=%27rgb%28179,128,128%29%27/%3E%3Crect%20x=%272.52%27%20y=%270%27%20width=%272.62%27%20height=%27184%27%20fill=%27rgb%28207,128,128%29%27/%3E%3Crect%20x=%275.04%27%20y=%270%27%20width=%272.62%27%20height=%27184%27%20fill=%27rgb%28222,128,128%29%27/%3E%3Crect%20x=%277.56%27%20y=%270%27%20width=%272.62%27%20height=%27184%27%20fill=%27rgb%28231,128,128%29%27/%3E%3Crect%20x=%2710.08%27%20y=%270%27%20width=%272.62%27%20height=%27184%27%20fill=%27rgb%28237,128,128%29%27/%3E%3Crect%20x=%2712.60%27%20y=%270%27%20width=%272.62%27%20height=%27184%27%20fill=%27rgb%28241,128,128%29%27/%3E%3Crect%20x=%2715.12%27%20y=%270%27%20width=%272.62%27%20height=%27184%27%20fill=%27rgb%28244,128,128%29%27/%3E%3Crect%20x=%2717.64%27%20y=%270%27%20width=%272.62%27%20height=%27184%27%20fill=%27rgb%28245,128,128%29%27/%3E%3Crect%20x=%2720.16%27%20y=%270%27%20width=%272.62%27%20height=%27184%27%20fill=%27rgb%28245,128,128%29%27/%3E%3Crect%20x=%2722.68%27%20y=%270%27%20width=%272.62%27%20height=%27184%27%20fill=%27rgb%28245,128,128%29%27/%3E%3Crect%20x=%2725.21%27%20y=%270%27%20width=%272.62%27%20height=%27184%27%20fill=%27rgb%28243,128,128%29%27/%3E%3Crect%20x=%2727.73%27%20y=%270%27%20width=%272.62%27%20height=%27184%27%20fill=%27rgb%28242,128,128%29%27/%3E%3Crect%20x=%2730.25%27%20y=%270%27%20width=%272.62%27%20height=%27184%27%20fill=%27rgb%28240,128,128%29%27/%3E%3Crect%20x=%2732.77%27%20y=%270%27%20width=%272.62%27%20height=%27184%27%20fill=%27rgb%28237,128,128%29%27/%3E%3Crect%20x=%2735.29%27%20y=%270%27%20width=%272.62%27%20height=%27184%27%20fill=%27rgb%28234,128,128%29%27/%3E%3Crect%20x=%2737.81%27%20y=%270%27%20width=%272.62%27%20height=%27184%27%20fill=%27rgb%28231,128,128%29%27/%3E%3Crect%20x=%2740.33%27%20y=%270%27%20width=%272.62%27%20height=%27184%27%20fill=%27rgb%28227,128,128%29%27/%3E%3Crect%20x=%2742.85%27%20y=%270%27%20width=%272.62%27%20height=%27184%27%20fill=%27rgb%28224,128,128%29%27/%3E%3Crect%20x=%2745.37%27%20y=%270%27%20width=%272.62%27%20height=%27184%27%20fill=%27rgb%28220,128,128%29%27/%3E%3Crect%20x=%2747.89%27%20y=%270%27%20width=%272.62%27%20height=%27184%27%20fill=%27rgb%28215,128,128%29%27/%3E%3Crect%20x=%2750.41%27%20y=%270%27%20width=%272.62%27%20height=%27184%27%20fill=%27rgb%28211,128,128%29%27/%3E%3Crect%20x=%2752.93%27%20y=%270%27%20width=%272.62%27%20height=%27184%27%20fill=%27rgb%28206,128,128%29%27/%3E%3Crect%20x=%2755.45%27%20y=%270%27%20width=%272.62%27%20height=%27184%27%20fill=%27rgb%28202,128,128%29%27/%3E%3Crect%20x=%2757.97%27%20y=%270%27%20width=%272.62%27%20height=%27184%27%20fill=%27rgb%28197,128,128%29%27/%3E%3Crect%20x=%2760.49%27%20y=%270%27%20width=%272.62%27%20height=%27184%27%20fill=%27rgb%28192,128,128%29%27/%3E%3Crect%20x=%2763.01%27%20y=%270%27%20width=%272.62%27%20height=%27184%27%20fill=%27rgb%28187,128,128%29%27/%3E%3Crect%20x=%2765.53%27%20y=%270%27%20width=%272.62%27%20height=%27184%27%20fill=%27rgb%28182,128,128%29%27/%3E%3Crect%20x=%2768.05%27%20y=%270%27%20width=%272.62%27%20height=%27184%27%20fill=%27rgb%28177,128,128%29%27/%3E%3Crect%20x=%2770.58%27%20y=%270%27%20width=%272.62%27%20height=%27184%27%20fill=%27rgb%28171,128,128%29%27/%3E%3Crect%20x=%2773.10%27%20y=%270%27%20width=%272.62%27%20height=%27184%27%20fill=%27rgb%28166,128,128%29%27/%3E%3Crect%20x=%2775.62%27%20y=%270%27%20width=%272.62%27%20height=%27184%27%20fill=%27rgb%28161,128,128%29%27/%3E%3Crect%20x=%2778.14%27%20y=%270%27%20width=%272.62%27%20height=%27184%27%20fill=%27rgb%28155,128,128%29%27/%3E%3Crect%20x=%2780.66%27%20y=%270%27%20width=%272.62%27%20height=%27184%27%20fill=%27rgb%28150,128,128%29%27/%3E%3Crect%20x=%2783.18%27%20y=%270%27%20width=%272.62%27%20height=%27184%27%20fill=%27rgb%28144,128,128%29%27/%3E%3Crect%20x=%2785.70%27%20y=%270%27%20width=%272.62%27%20height=%27184%27%20fill=%27rgb%28139,128,128%29%27/%3E%3Crect%20x=%2788.22%27%20y=%270%27%20width=%272.62%27%20height=%27184%27%20fill=%27rgb%28133,128,128%29%27/%3E%3Crect%20x=%2790.74%27%20y=%270%27%20width=%272.62%27%20height=%27184%27%20fill=%27rgb%28128,128,128%29%27/%3E%3Crect%20x=%2793.26%27%20y=%270%27%20width=%272.62%27%20height=%27184%27%20fill=%27rgb%28122,128,128%29%27/%3E%3Crect%20x=%2795.78%27%20y=%270%27%20width=%272.62%27%20height=%27184%27%20fill=%27rgb%28116,128,128%29%27/%3E%3Crect%20x=%2798.30%27%20y=%270%27%20width=%272.62%27%20height=%27184%27%20fill=%27rgb%28111,128,128%29%27/%3E%3Crect%20x=%27100.82%27%20y=%270%27%20width=%272.62%27%20height=%27184%27%20fill=%27rgb%28105,128,128%29%27/%3E%3Crect%20x=%27103.34%27%20y=%270%27%20width=%272.62%27%20height=%27184%27%20fill=%27rgb%28100,128,128%29%27/%3E%3Crect%20x=%27105.86%27%20y=%270%27%20width=%272.62%27%20height=%27184%27%20fill=%27rgb%2894,128,128%29%27/%3E%3Crect%20x=%27108.38%27%20y=%270%27%20width=%272.62%27%20height=%27184%27%20fill=%27rgb%2889,128,128%29%27/%3E%3Crect%20x=%27110.90%27%20y=%270%27%20width=%272.62%27%20height=%27184%27%20fill=%27rgb%2884,128,128%29%27/%3E%3Crect%20x=%27113.42%27%20y=%270%27%20width=%272.62%27%20height=%27184%27%20fill=%27rgb%2878,128,128%29%27/%3E%3Crect%20x=%27115.95%27%20y=%270%27%20width=%272.62%27%20height=%27184%27%20fill=%27rgb%2873,128,128%29%27/%3E%3Crect%20x=%27118.47%27%20y=%270%27%20width=%272.62%27%20height=%27184%27%20fill=%27rgb%2868,128,128%29%27/%3E%3Crect%20x=%27120.99%27%20y=%270%27%20width=%272.62%27%20height=%27184%27%20fill=%27rgb%2863,128,128%29%27/%3E%3Crect%20x=%27123.51%27%20y=%270%27%20width=%272.62%27%20height=%27184%27%20fill=%27rgb%2858,128,128%29%27/%3E%3Crect%20x=%27126.03%27%20y=%270%27%20width=%272.62%27%20height=%27184%27%20fill=%27rgb%2853,128,128%29%27/%3E%3Crect%20x=%27128.55%27%20y=%270%27%20width=%272.62%27%20height=%27184%27%20fill=%27rgb%2849,128,128%29%27/%3E%3Crect%20x=%27131.07%27%20y=%270%27%20width=%272.62%27%20height=%27184%27%20fill=%27rgb%2844,128,128%29%27/%3E%3Crect%20x=%27133.59%27%20y=%270%27%20width=%272.62%27%20height=%27184%27%20fill=%27rgb%2840,128,128%29%27/%3E%3Crect%20x=%27136.11%27%20y=%270%27%20width=%272.62%27%20height=%27184%27%20fill=%27rgb%2835,128,128%29%27/%3E%3Crect%20x=%27138.63%27%20y=%270%27%20width=%272.62%27%20height=%27184%27%20fill=%27rgb%2831,128,128%29%27/%3E%3Crect%20x=%27141.15%27%20y=%270%27%20width=%272.62%27%20height=%27184%27%20fill=%27rgb%2828,128,128%29%27/%3E%3Crect%20x=%27143.67%27%20y=%270%27%20width=%272.62%27%20height=%27184%27%20fill=%27rgb%2824,128,128%29%27/%3E%3Crect%20x=%27146.19%27%20y=%270%27%20width=%272.62%27%20height=%27184%27%20fill=%27rgb%2821,128,128%29%27/%3E%3Crect%20x=%27148.71%27%20y=%270%27%20width=%272.62%27%20height=%27184%27%20fill=%27rgb%2818,128,128%29%27/%3E%3Crect%20x=%27151.23%27%20y=%270%27%20width=%272.62%27%20height=%27184%27%20fill=%27rgb%2815,128,128%29%27/%3E%3Crect%20x=%27153.75%27%20y=%270%27%20width=%272.62%27%20height=%27184%27%20fill=%27rgb%2813,128,128%29%27/%3E%3Crect%20x=%27156.27%27%20y=%270%27%20width=%272.62%27%20height=%27184%27%20fill=%27rgb%2812,128,128%29%27/%3E%3Crect%20x=%27158.79%27%20y=%270%27%20width=%272.62%27%20height=%27184%27%20fill=%27rgb%2810,128,128%29%27/%3E%3Crect%20x=%27161.32%27%20y=%270%27%20width=%272.62%27%20height=%27184%27%20fill=%27rgb%2810,128,128%29%27/%3E%3Crect%20x=%27163.84%27%20y=%270%27%20width=%272.62%27%20height=%27184%27%20fill=%27rgb%2810,128,128%29%27/%3E%3Crect%20x=%27166.36%27%20y=%270%27%20width=%272.62%27%20height=%27184%27%20fill=%27rgb%2811,128,128%29%27/%3E%3Crect%20x=%27168.88%27%20y=%270%27%20width=%272.62%27%20height=%27184%27%20fill=%27rgb%2814,128,128%29%27/%3E%3Crect%20x=%27171.40%27%20y=%270%27%20width=%272.62%27%20height=%27184%27%20fill=%27rgb%2818,128,128%29%27/%3E%3Crect%20x=%27173.92%27%20y=%270%27%20width=%272.62%27%20height=%27184%27%20fill=%27rgb%2824,128,128%29%27/%3E%3Crect%20x=%27176.44%27%20y=%270%27%20width=%272.62%27%20height=%27184%27%20fill=%27rgb%2833,128,128%29%27/%3E%3Crect%20x=%27178.96%27%20y=%270%27%20width=%272.62%27%20height=%27184%27%20fill=%27rgb%2848,128,128%29%27/%3E%3Crect%20x=%27181.48%27%20y=%270%27%20width=%272.62%27%20height=%27184%27%20fill=%27rgb%2876,128,128%29%27/%3E%3C/svg%3E"/><feDisplacementMap in="SourceGraphic" in2="warp" scale="42" xChannelSelector="R" yChannelSelector="G"/></filter><path id="world-map" d="M18.9,169.6 16.3,168.6 20.8,169.5 18.9,169.6ZM59.8,164.1 57.4,163.7 61.3,163.5 59.8,164.1ZM83.8,162.5 79.2,162.5 77.7,161.9 83.8,162.5ZM101.8,81.7 100.4,81.1 99.1,82.8 94.3,80.1 92.5,76.7 76.5,71.7 74.5,70.1 74,67.2 65.2,58.2 65.3,59.8 70.6,66.8 67.8,65.3 67.7,64 64.9,62.3 65.8,61.4 62.7,57 59.4,55.4 55.6,49.7 55.3,41.8 57.4,42.9 57.2,41 54.4,39.6 52.6,39.2 45.9,31.9 32.9,29.1 28.3,30.8 29.4,28.7 21.6,34 15.2,35.6 22.3,32.4 23,31.1 18,31.3 17.5,30 14.7,29.5 14.3,27.9 19.2,26.2 19.2,25.2 15,25.6 11.9,24.3 18.3,23.9 13.2,21.6 23.4,18.6 43.5,21.1 51.9,19.5 71.1,22.6 71.8,21.3 78.5,22.4 82.3,21.4 83.9,22.7 85.8,20.9 83.5,19.9 83.6,18.8 86.1,18.2 88.5,19.8 87.6,20.3 89.5,20.5 89.4,21.5 90.8,20.7 92.6,22.8 94.5,20.1 98.8,21.3 98.6,22.9 94.2,23.4 85.8,29.1 85.3,31.1 86.8,31.2 87.7,32.9 97.7,34.9 97.9,36.7 100.1,38.8 101.4,37.4 100.2,35.3 103.5,33.5 101.5,31.2 102.7,30.1 101.9,27.7 106.2,27.6 110.4,28.9 110.7,31 112.4,31.8 115.4,29.7 118.2,33.7 124.2,36.7 124.3,37.9 120,39.8 113.6,39.8 108.9,43.2 114.9,40.8 115.8,41.3 114.9,41.9 115.5,43.8 116.8,44.3 118.5,44.1 119.5,43 120.2,44.1 114.6,46.5 113.8,45.5 115.6,44.7 112.9,44.9 109.4,46.9 110,48.4 104.5,50.5 104.9,51.6 104.1,52.8 103.6,50.9 103,51.8 104.3,54.4 98.7,58.6 99.6,64.8 96.3,60.1 93.6,59.6 90.4,59.8 90.6,60.8 86.2,60.3 82.6,62.6 82.1,67.6 84.1,71.2 88.6,71.1 89.7,69 92.9,68.5 91.1,74.1 96.6,74.7 96.2,78.9 97.8,81 100.4,80.4 103.2,81.4 105.1,78.9 108.2,77.6 108.3,80.9 110.1,77.8 111.8,79.4 118.1,79.3 117.6,80.1 122.9,84 128.7,85.8 130,88.3 129.3,89.8 131.4,90.2 131.4,91.2 132.2,90.6 135.1,91.6 135.4,92.7 140,92.9 144.8,95.5 144.9,99 141.3,103.1 139.1,111.9 132.4,114.9 131.1,118.7 126.2,124.4 121.6,123.9 123.2,126.9 120.8,128.7 117.7,128.8 117.3,131 114.9,131.1 116.5,132.6 112.7,135.6 114,138.1 110.9,140.7 111.9,142.3 110.5,142.3 109.2,142.9 109,143.8 105.1,142.3 104.4,138.7 105.9,136.9 104.4,136.6 107.3,132.4 105.7,133.2 106.4,127.2 108.6,122.4 109.8,109.8 108.5,107.4 104,104.6 98.8,96.1 100.2,92.7 99.1,91.1 102.9,86.2 101.8,81.7ZM51.6,39.2 54.2,39.7 56.5,41.5 54.3,41.2 51.6,39.2ZM46.8,36.1 48.3,35.9 48.8,37.8 47.8,37.4 46.8,36.1ZM99.9,26.3 94.5,26.9 92.8,26.5 94.1,24.3 99.9,26.3ZM7.4,25.5 1.3,23.9 0,25 0,21 5.7,23.7 5.4,22.9 8.1,23.1 10.1,24 7.5,24.6 7.4,25.5ZM81.8,19.9 84.4,20.9 80.2,20.6 81.8,19.9ZM77.9,20.9 66.7,21.5 62.7,20 67.6,19.6 62.1,19.5 63.9,18.7 60.6,18.4 64.8,16.7 70.1,17 71.8,18.3 71.6,16.9 72.5,16.8 79,20 77.9,20.9ZM83.3,18.3 80.7,18.6 77.5,17.2 82.6,16.2 81.9,17 83.5,17.4 83.3,18.3ZM56.9,19.1 54.1,18.1 56.1,16.3 55.1,15.7 64.5,16.5 56.9,19.1ZM84,17.1 85.5,15.9 89.5,16.1 85.7,18 84,17.1ZM85.8,15.4 84.4,15.3 83.2,15.1 85.1,14.4 85.8,15.4ZM66.1,15.3 68.2,14.8 62.3,14.8 64.6,13.5 70.9,14.5 69.5,13.6 70.4,13.2 74.3,14.5 66.1,15.3ZM83.3,12.8 90.8,14.4 98.9,14.3 100.2,15.1 87.6,15.2 83.3,12.8ZM77.4,13.7 81.5,13.3 82.3,14.3 80.2,15.1 77.4,13.7ZM63.8,12.4 58.5,14.1 57.1,13.9 63.8,12.4ZM84.4,11.6 82.7,12.1 81.4,11.1 83.2,11.2 84.4,11.6ZM75.8,11.3 74.5,10.7 80.3,12.1 74.8,11.6 75.8,11.3ZM87.6,8.7 94.2,10.7 89.2,11.8 83.3,9.8 87.6,8.7ZM120.4,170 115.5,170.9 113.7,170.3 120.4,170ZM136.7,170 129.5,171 125.8,170.6 133.3,167.8 136.1,168.5 136.7,170ZM109.7,158.9 111.5,161 111.2,162.2 105,162.1 107.9,161.2 108.3,159.5 109.7,158.9ZM111.4,145.6 105.3,142.8 108.9,144.1 110.7,142.5 115,144.7 111.4,145.6ZM118.8,141.8 121.4,141.1 122.2,141.6 120.6,142.2 118.8,141.8ZM171,85.2 163.4,77.8 162.4,75.3 163.9,71.9 162.9,69 165.6,63.7 170.4,60.1 170.7,57.4 174.1,54.2 177.8,54.8 189.5,52.7 191.1,53.1 190.3,56.2 199.1,59.7 201.5,57.2 208.9,59.1 213.8,59 216.2,53.3 207.6,53.3 206.2,50.5 213.5,48 218.3,49.1 221.6,48.5 221.5,47.4 216.7,44.8 219.1,42.7 215,43.7 216.3,44.9 213.9,45.6 212.5,44.7 213.3,43.9 210.7,43.4 207.7,47.4 208.8,48.9 202.6,49.7 204,52.3 203.1,52.1 202.5,53.6 199.4,49.7 199.5,48.3 193.1,44.3 192.6,45.9 198.5,49.8 196.9,49.6 196.1,52 195.4,50 188.9,45.6 183.1,46.9 177.9,53.3 174.6,54.1 171.1,53.1 170.6,47 178.6,46 178.8,44 175.4,41.3 178.4,41.4 178.1,40.2 181.3,39.9 184.7,36.9 188.1,36.5 188.5,32.9 190.6,32.3 190.9,33.5 189.6,34.5 190.9,36 199.7,35.6 201.3,34.8 201.6,32.6 204.1,33 204.4,31.6 203.3,30.8 209.1,30 201.3,29.3 201.5,26.8 205.4,24.9 203.9,24 197.8,27.3 197.1,28.7 198.8,29.9 196.8,31.3 195.9,33.9 192.9,34.6 190.4,30.5 188.4,31.7 185.7,31.4 185,28 199.2,20.2 208.2,18.8 221.1,22.5 218.4,24 213.2,23.4 214.8,24.1 214.9,25.6 217,26.2 217.2,24.9 219.6,25.5 222.1,23.5 223.9,23.9 223.5,21.4 226.3,21.8 226.8,22.3 225.6,23 226.3,23.3 233.7,21.1 239.9,21.7 241.1,21.1 240.6,20.1 248.5,21.9 249.2,21.4 246.9,20.5 246.7,19 249.9,17 252.8,17.8 251.8,18.6 253.7,21.6 251.3,23.7 252.4,23.8 255.1,22.2 253.6,20.4 254.4,19.4 253.1,18.6 254.7,17.2 256.4,18.8 255.9,18.1 257.6,17.7 261.5,18.2 260.5,16.4 266.8,16.1 266,15.5 267.2,14.9 284.4,12.3 294.1,14.2 289.4,15.8 307,16.4 311.3,19.2 312.3,18.2 319.9,18.5 319.1,17.6 320.5,17.2 339,19.1 340.9,20.6 349.6,21.3 350.8,21 350.5,19.9 360,21 360,25 357.4,25.4 359.2,27.7 353.7,28.3 350.3,30.1 343.5,30.1 342,31.8 343.2,32.4 342.1,35.1 336.8,39 335.9,33.2 344.5,27.4 340.1,29.5 339.3,28.2 336.7,28.6 334.2,30.2 335,30.9 322.2,31 315.1,35.3 319.9,35.8 321.4,37.8 318.2,43.7 307.5,50.2 309.5,53.2 309.1,54.9 306.5,55.6 306.9,53.1 304.7,51.9 305.3,50.4 301.1,51.1 301.6,49.1 298,50.8 298.9,52.6 302.4,52.5 299.2,55.1 301.9,58.3 301.7,61.8 295.9,67.2 290.8,68.6 290.4,69.7 288.5,68.3 285.9,70.2 289.3,76.6 289.2,78.3 285.2,81.4 285.1,80.1 280.1,76.6 279.2,80.8 283,84.5 284.2,88.7 281.4,87.2 280.1,83.5 278.3,82.2 278.8,78.6 277.2,73.1 274.2,74 274.3,71.8 271.4,67.2 267,68.5 260.3,74.1 259.9,79.6 257.5,82 253.5,74 252.6,68.6 250.5,69.1 246.4,64.6 237.4,64.3 236.5,62.9 234.7,63.5 231.5,62.1 230.1,59.9 228,60 230.8,65.2 231.6,64.2 231.8,66 234,65.9 236.4,63.6 236.8,65.8 239.8,67.7 235.3,72.8 223.5,77.4 222.6,73.2 214.6,61.9 215,60.6 214.9,60.5 214.8,60.2 213.9,62.4 212.4,60.1 216.9,68 217.5,71.4 223.3,77.6 222.7,78.3 224.6,79.6 231.1,78 231,79.4 227.7,85.8 219.2,94.7 219.2,98.5 220.5,100.8 220.1,106.1 214.8,109.8 215.5,114.1 212.6,115.7 212.5,118.3 210.1,121.1 205.8,123.9 198.4,124.1 198.2,121.7 195.2,117.1 191.6,106.7 193.6,102 193.2,98.6 188.8,91.1 189.8,86.9 188.5,85.2 185.9,85.7 184.3,83.7 178,85.3 171,85.2ZM111.2,71 108.6,72.4 105.5,71.7 107.7,71.3 106.8,70.1 111.2,71ZM99.4,66.9 105.7,69.9 102.2,70.1 102.9,69.6 101.3,68.4 98.2,67.4 95,68.1 99.4,66.9ZM126.5,40.8 126.9,43.3 125.8,42.2 124.6,43.1 120.6,42.1 124.1,38.4 123.2,40.2 126.5,40.8ZM173.3,34.8 174.3,35.4 173.2,37.7 170,38.2 170.3,36.1 173.3,34.8ZM158.2,25.6 155.7,24.4 165.5,23.5 166.4,24.9 161.3,26.5 157.2,26 158.2,25.6ZM104.8,22.6 103,22.9 102.8,22.4 104.1,21.7 104.8,22.6ZM102.2,17.3 113,20.8 111.2,21.3 118.1,23.1 116.1,25 112,23.7 115.3,26.6 111.2,26.3 113.8,28.1 105.2,25.3 101.4,25.4 106,24.5 107.3,22.7 106.7,21.9 101,19.8 91.3,19.6 89.8,17.8 91.6,16.5 94.2,16.2 93.4,16.8 94.2,17.5 97.7,16.2 99.3,17.9 102.2,17.3ZM159.2,7.3 148.1,7.8 167.8,8.7 160,9.8 162.3,9.9 160.3,11.2 161.5,13 158.3,13.4 160.2,13.9 159.3,14.8 160.6,15.7 156.4,16.7 157.7,17.8 155.2,17.7 158.2,19.3 154.5,18.6 153.6,19.8 157.7,19.9 140.2,24.5 137.2,27.3 136.6,29.9 131.7,29.1 128.4,26.4 126,22.8 129.1,20.1 125.3,20.4 125.6,19.2 128.6,19.4 124.2,18.3 125.3,17.4 121.4,14.5 111.5,13.9 108.6,13 113.2,12.6 106.7,12 114.3,10.6 112,9.9 119.7,8 135.5,8.3 133.2,7.4 144.9,6.4 159.2,7.3ZM103.7,17.2 100.2,17.2 99.2,16.3 103.7,17.2ZM88.4,8.1 107.2,6.8 118.2,7.4 108.8,10.2 103.1,10.7 104.6,11.5 99.4,13.8 90.5,13.5 92.2,12.8 91.7,12.1 95,12.5 92,11.6 94.9,10.7 93.1,9.7 98.2,9.5 92.4,9.5 88.4,8.1ZM0,174.7 21.9,175.4 36.9,175 26.4,173.7 27.1,172 23.2,171.1 33.6,170.3 24.7,169.1 21.6,166.9 28.7,167.4 33.9,166.5 33.8,165.4 35.1,165.2 60.3,164.5 66.1,163.7 72.4,165.2 79.9,164.9 76.3,162.6 83.7,163.6 90.8,162.6 103.8,164 111.1,163 112.9,162 111.5,159.7 112.7,156.9 117,154.6 122.2,153.3 118,154.8 117.9,156.2 114.3,158 118.2,160.7 119.2,163.7 109.4,166.6 102.8,166.7 106.3,167.9 102,169.2 121.8,173.2 151.5,170.3 150.3,169.3 144.4,169.5 144.2,168.3 162.5,165.1 164.3,164.5 163.5,163.9 164.6,163.1 173.1,160.9 179.8,161.6 187.7,159.9 190.8,160.8 193.4,160 207.1,160.5 213.9,158.5 218.6,159.8 234.5,155.8 241.4,158 248.9,157.9 249.7,159.2 247.8,160.3 249.1,160.7 247.9,161.9 249.9,162.3 253.9,159.9 268,156.2 275.8,157.4 279.7,157.2 282.8,155.6 286.2,156.9 293.6,155.9 299.8,157.3 314.8,156.2 315.1,155.3 317.5,157 325.5,156.9 328.8,158.4 351.2,161.7 343.6,166.2 344.7,168.2 347,168.8 341.8,169.2 339.8,170.9 349.4,173.8 360,174.7 360,180 0,180 0,174.7ZM192.4,52.4 195.5,51.8 195.1,53.4 192.4,52.4ZM188.2,49 189.2,48.8 189.7,50.8 188.4,50.8 188.2,49ZM177.1,36 174.2,32.2 177,31.4 175.9,32.4 178,32.3 176.9,34 181.7,37.3 181.4,38.7 174.2,39.8 176.6,38.6 174.7,38 177.1,36ZM191,34.6 192.4,33.9 192.7,34.4 192.1,35.2 191,34.6ZM195.9,13.2 193.8,12.6 194.7,12.3 190.4,10.3 197,9.9 201.5,11 195.9,13.2ZM202.5,12.6 200.8,11.7 204.7,12.1 202.5,12.6ZM197.4,9.7 202.9,9.3 207.4,9.9 203,10.6 197.4,9.7ZM248.9,138.6 250.5,139.1 250.6,139.3 248.7,139.8 248.9,138.6ZM230.5,105.2 227.1,114.9 224,115 223.3,112.1 224.4,106.2 227.7,104.6 229.2,102 230.5,105.2ZM295.7,98.4 288.3,97.8 285.4,96.9 286.1,95.9 290.8,96.5 295.7,98.4ZM285.8,95.9 281.4,92.8 275.3,84.5 277.5,84.8 283.8,89.9 283.4,90.7 286.1,93.1 285.8,95.9ZM297.8,89.2 296.1,94 294.9,94.1 290.2,92.9 289,89.6 289.7,88 291.2,88.1 297.1,83.1 299.2,84.6 297.3,86.8 299,89.1 297.8,89.2ZM260.1,80.2 261.6,83.5 260.3,84 260.1,80.2ZM290.3,71.3 288.7,71.5 288.6,70.6 290.8,69.9 290.3,71.3ZM248.9,13.5 238.5,15.7 235.4,17.6 237.5,19.3 231.6,18.5 235.6,14.9 248.9,13.5ZM285.1,11.7 279.4,12.1 282.1,10.7 285.1,11.7ZM277.8,11.2 271.2,9.7 275.9,8.7 280.2,10.2 277.8,11.2ZM231.5,9.3 227.6,10 224.8,9.4 231.5,9.3ZM352.1,131 354.2,131.8 353.1,133.9 350.6,135.9 346.7,136.2 352.1,131ZM325.4,132.7 324.7,130.7 328.3,130.9 327.9,133.2 325.4,132.7ZM353.9,129.1 354.7,127.4 352.6,124.5 356,127.6 358.5,127.7 355.2,131.7 353.9,129.1ZM311.3,121.5 298,125.1 295,124.2 295.8,122.2 293.3,116.1 294.2,116.3 293.7,112.5 300.9,109.7 305.7,104.2 309.6,105 312.4,101.1 316.5,101.9 315.5,105 320.2,107.7 322.5,100.7 323.9,104.5 325.4,105 326.4,109 330.7,112.4 333.6,118.1 330,127.4 326.3,129 325,127.9 323.6,128.8 320.6,128 318.1,125.6 318.2,124.4 316.8,125.3 317.8,122.9 316,124.9 314.3,122.6 311.3,121.5ZM344,110.1 345,110.5 347.1,112.2 345.5,111.7 344,110.1ZM304,99.3 307.3,98.4 303.6,100.4 304,99.3ZM327.2,97.4 330.7,100.6 327.9,100.1 324.7,97.6 322.6,99.3 317.6,98.4 318.7,97.3 317.9,95.4 313,94.1 312,92.8 313.7,92.2 310.5,90.9 314,90.8 315.5,93.4 318.3,91.7 324.6,93.9 327.6,96.1 327.2,97.4ZM328.3,95.7 331.5,94.2 332.3,94.3 330.2,96.3 328.3,95.7ZM330.7,92.7 332.2,93.2 333.1,94.5 332.8,94.8 330.7,92.7ZM307.9,93.4 310.5,93.1 310.8,93.9 307.9,93.4ZM300.2,89.8 300.9,91.4 303.3,90.6 301.5,91.9 303.2,94.7 302.6,95.6 301,92.6 300.4,95.5 299.4,95.4 298.8,92.8 299.8,89.8 300.9,88.7 305.2,88.6 303.7,89.8 300.2,89.8ZM308.4,90.8 307.4,89 307.9,87.8 308.6,89.7 308.4,90.8ZM305.4,84.4 303.6,82.2 301.9,82.8 305.4,80.2 306.2,80.7 306.2,83.7 305.8,82.7 305.4,84.4ZM299.7,79.4 297.2,81.6 299.5,78.6 299.7,79.4ZM301.5,74.9 304.1,77.5 300.6,76.1 299.9,73.6 300.7,71.5 302.2,71.5 301.5,74.9ZM301.5,64.7 301.2,67.2 300.7,68 300.1,66.4 301.5,64.7ZM313,57.3 312.9,55.9 314.6,55.9 314.2,56.8 313,57.3ZM320.3,54.9 315.1,55.4 311,56.1 312,56.9 310.7,59 309.4,56.7 312.6,54.6 315.7,54.5 316.7,52.7 319.4,51.8 319.9,49.4 321.4,48.6 321.9,50.8 320.3,54.9ZM320,48.4 321.4,46.6 322,44.4 325.3,45.6 325.5,46.7 323.2,48 321.6,47.3 320,48.4ZM323.5,43.9 321.9,43.2 321.7,36.7 322.7,35.6 324.7,41 323.2,40.7 322.6,42.1 323.5,43.9ZM319.9,16.6 322.1,16.1 323.6,16.8 319.9,16.6ZM317.5,14.1 325.1,14.4 317,14.7 317.5,14.1Z"/></defs>
  <style>.map{animation:spin 14s linear infinite;}.land{fill:currentColor;}.outline{fill:none;stroke:currentColor;stroke-width:1;vector-effect:non-scaling-stroke;}@keyframes spin{from{transform:translateX(0)}to{transform:translateX(-360px)}}</style>
  <g clip-path="url(#globe-clip)"><g filter="url(#sphere-warp)"><g class="map land"><use href="#world-map" transform="translate(0 20)"/><use href="#world-map" transform="translate(360 20)"/><use href="#world-map" transform="translate(720 20)"/></g></g></g>
  <circle class="outline" cx="110" cy="110" r="92"/></svg>