<svg xmlns="http://www.w3.org/2000/svg" viewBox="0 0 416 416" width="416" height="416" role="img" aria-labelledby="title desc"><title id="title">PortMask glyph H</title><desc id="desc">Grid/logic glyph with 6 columns and 6 rows, each cell encoded as a 4-bit port mask.</desc><rect x="0" y="0" width="416" height="416" fill="transparent"/><line x1="16" y1="85.5" x2="400" y2="85.5" stroke="#5f6470" stroke-width="1.1" stroke-dasharray="5 4" opacity="0.6"/><text x="346" y="81.5" fill="#5f6470" font-size="11" font-family="ui-sans-serif, system-ui">cap</text><line x1="16" y1="208.5" x2="400" y2="208.5" stroke="#5f6470" stroke-width="1.1" stroke-dasharray="5 4" opacity="0.6"/><text x="346" y="204.5" fill="#5f6470" font-size="11" font-family="ui-sans-serif, system-ui">x</text><line x1="16" y1="331.5" x2="400" y2="331.5" stroke="#5f6470" stroke-width="1.1" stroke-dasharray="5 4" opacity="0.6"/><text x="346" y="327.5" fill="#5f6470" font-size="11" font-family="ui-sans-serif, system-ui">baseline</text><line x1="208.5" y1="16" x2="208.5" y2="400" stroke="#ec4899" stroke-width="2" stroke-dasharray="6 5" opacity="0.9"/><rect x="16.5" y="16.5" width="63" height="63" rx="4.5" fill="#fbfbfd" stroke="#c8ceda" stroke-width="1"/><circle cx="48" cy="48" r="2.56" fill="#111318" opacity="0.55"/><circle cx="48" cy="23.68" r="3.2" fill="transparent" stroke="#d7dbe5" stroke-width="1"/><circle cx="72.32" cy="48" r="3.2" fill="transparent" stroke="#d7dbe5" stroke-width="1"/><circle cx="48" cy="72.32" r="3.2" fill="transparent" stroke="#d7dbe5" stroke-width="1"/><circle cx="23.68" cy="48" r="3.2" fill="transparent" stroke="#d7dbe5" stroke-width="1"/><text x="22" y="31" fill="#5f6470" font-size="11" font-family="ui-monospace, monospace">0</text><rect x="80.5" y="16.5" width="63" height="63" rx="4.5" fill="#fbfbfd" stroke="#c8ceda" stroke-width="1"/><circle cx="112" cy="48" r="2.56" fill="#111318" opacity="0.55"/><circle cx="112" cy="23.68" r="3.2" fill="transparent" stroke="#d7dbe5" stroke-width="1"/><circle cx="136.32" cy="48" r="3.2" fill="transparent" stroke="#d7dbe5" stroke-width="1"/><circle cx="112" cy="72.32" r="3.2" fill="transparent" stroke="#d7dbe5" stroke-width="1"/><circle cx="87.68" cy="48" r="3.2" fill="transparent" stroke="#d7dbe5" stroke-width="1"/><text x="86" y="31" fill="#5f6470" font-size="11" font-family="ui-monospace, monospace">0</text><rect x="144.5" y="16.5" width="63" height="63" rx="4.5" fill="#fbfbfd" stroke="#c8ceda" stroke-width="1"/><circle cx="176" cy="48" r="2.56" fill="#111318" opacity="0.55"/><circle cx="176" cy="23.68" r="3.2" fill="transparent" stroke="#d7dbe5" stroke-width="1"/><circle cx="200.32" cy="48" r="3.2" fill="transparent" stroke="#d7dbe5" stroke-width="1"/><circle cx="176" cy="72.32" r="3.2" fill="transparent" stroke="#d7dbe5" stroke-width="1"/><circle cx="151.68" cy="48" r="3.2" fill="transparent" stroke="#d7dbe5" stroke-width="1"/><text x="150" y="31" fill="#5f6470" font-size="11" font-family="ui-monospace, monospace">0</text><rect x="208.5" y="16.5" width="63" height="63" rx="4.5" fill="#fbfbfd" stroke="#c8ceda" stroke-width="1"/><circle cx="240" cy="48" r="2.56" fill="#111318" opacity="0.55"/><circle cx="240" cy="23.68" r="3.2" fill="transparent" stroke="#d7dbe5" stroke-width="1"/><circle cx="264.32" cy="48" r="3.2" fill="transparent" stroke="#d7dbe5" stroke-width="1"/><circle cx="240" cy="72.32" r="3.2" fill="transparent" stroke="#d7dbe5" stroke-width="1"/><circle cx="215.68" cy="48" r="3.2" fill="transparent" stroke="#d7dbe5" stroke-width="1"/><text x="214" y="31" fill="#5f6470" font-size="11" font-family="ui-monospace, monospace">0</text><rect x="272.5" y="16.5" width="63" height="63" rx="4.5" fill="#fbfbfd" stroke="#c8ceda" stroke-width="1"/><circle cx="304" cy="48" r="2.56" fill="#111318" opacity="0.55"/><circle cx="304" cy="23.68" r="3.2" fill="transparent" stroke="#d7dbe5" stroke-width="1"/><circle cx="328.32" cy="48" r="3.2" fill="transparent" stroke="#d7dbe5" stroke-width="1"/><circle cx="304" cy="72.32" r="3.2" fill="transparent" stroke="#d7dbe5" stroke-width="1"/><circle cx="279.68" cy="48" r="3.2" fill="transparent" stroke="#d7dbe5" stroke-width="1"/><text x="278" y="31" fill="#5f6470" font-size="11" font-family="ui-monospace, monospace">0</text><rect x="336.5" y="16.5" width="63" height="63" rx="4.5" fill="#fbfbfd" stroke="#c8ceda" stroke-width="1"/><circle cx="368" cy="48" r="2.56" fill="#111318" opacity="0.55"/><circle cx="368" cy="23.68" r="3.2" fill="transparent" stroke="#d7dbe5" stroke-width="1"/><circle cx="392.32" cy="48" r="3.2" fill="transparent" stroke="#d7dbe5" stroke-width="1"/><circle cx="368" cy="72.32" r="3.2" fill="transparent" stroke="#d7dbe5" stroke-width="1"/><circle cx="343.68" cy="48" r="3.2" fill="transparent" stroke="#d7dbe5" stroke-width="1"/><text x="342" y="31" fill="#5f6470" font-size="11" font-family="ui-monospace, monospace">0</text><rect x="16.5" y="80.5" width="63" height="63" rx="4.5" fill="#fbfbfd" stroke="#c8ceda" stroke-width="1"/><circle cx="48" cy="112" r="2.56" fill="#111318" opacity="0.55"/><circle cx="48" cy="87.68" r="3.2" fill="transparent" stroke="#d7dbe5" stroke-width="1"/><circle cx="72.32" cy="112" r="3.2" fill="transparent" stroke="#d7dbe5" stroke-width="1"/><circle cx="48" cy="136.32" r="3.2" fill="transparent" stroke="#d7dbe5" stroke-width="1"/><circle cx="23.68" cy="112" r="3.2" fill="transparent" stroke="#d7dbe5" stroke-width="1"/><text x="22" y="95" fill="#5f6470" font-size="11" font-family="ui-monospace, monospace">0</text><rect x="80.5" y="80.5" width="63" height="63" rx="4.5" fill="#eef2ff" stroke="#c8ceda" stroke-width="1"/><line x1="112" y1="112" x2="112" y2="136.32" stroke="#111318" stroke-width="9" stroke-linecap="round" stroke-linejoin="round"/><circle cx="112" cy="112" r="2.56" fill="#111318" opacity="1"/><circle cx="112" cy="87.68" r="3.2" fill="transparent" stroke="#d7dbe5" stroke-width="1"/><circle cx="136.32" cy="112" r="3.2" fill="transparent" stroke="#d7dbe5" stroke-width="1"/><circle cx="112" cy="136.32" r="3.2" fill="#4f46e5" stroke="#4f46e5" stroke-width="1"/><circle cx="87.68" cy="112" r="3.2" fill="transparent" stroke="#d7dbe5" stroke-width="1"/><text x="86" y="95" fill="#4f46e5" font-size="11" font-family="ui-monospace, monospace">4</text><rect x="144.5" y="80.5" width="63" height="63" rx="4.5" fill="#fbfbfd" stroke="#c8ceda" stroke-width="1"/><circle cx="176" cy="112" r="2.56" fill="#111318" opacity="0.55"/><circle cx="176" cy="87.68" r="3.2" fill="transparent" stroke="#d7dbe5" stroke-width="1"/><circle cx="200.32" cy="112" r="3.2" fill="transparent" stroke="#d7dbe5" stroke-width="1"/><circle cx="176" cy="136.32" r="3.2" fill="transparent" stroke="#d7dbe5" stroke-width="1"/><circle cx="151.68" cy="112" r="3.2" fill="transparent" stroke="#d7dbe5" stroke-width="1"/><text x="150" y="95" fill="#5f6470" font-size="11" font-family="ui-monospace, monospace">0</text><rect x="208.5" y="80.5" width="63" height="63" rx="4.5" fill="#fbfbfd" stroke="#c8ceda" stroke-width="1"/><circle cx="240" cy="112" r="2.56" fill="#111318" opacity="0.55"/><circle cx="240" cy="87.68" r="3.2" fill="transparent" stroke="#d7dbe5" stroke-width="1"/><circle cx="264.32" cy="112" r="3.2" fill="transparent" stroke="#d7dbe5" stroke-width="1"/><circle cx="240" cy="136.32" r="3.2" fill="transparent" stroke="#d7dbe5" stroke-width="1"/><circle cx="215.68" cy="112" r="3.2" fill="transparent" stroke="#d7dbe5" stroke-width="1"/><text x="214" y="95" fill="#5f6470" font-size="11" font-family="ui-monospace, monospace">0</text><rect x="272.5" y="80.5" width="63" height="63" rx="4.5" fill="#eef2ff" stroke="#c8ceda" stroke-width="1"/><line x1="304" y1="112" x2="304" y2="136.32" stroke="#111318" stroke-width="9" stroke-linecap="round" stroke-linejoin="round"/><circle cx="304" cy="112" r="2.56" fill="#111318" opacity="1"/><circle cx="304" cy="87.68" r="3.2" fill="transparent" stroke="#d7dbe5" stroke-width="1"/><circle cx="328.32" cy="112" r="3.2" fill="transparent" stroke="#d7dbe5" stroke-width="1"/><circle cx="304" cy="136.32" r="3.2" fill="#4f46e5" stroke="#4f46e5" stroke-width="1"/><circle cx="279.68" cy="112" r="3.2" fill="transparent" stroke="#d7dbe5" stroke-width="1"/><text x="278" y="95" fill="#4f46e5" font-size="11" font-family="ui-monospace, monospace">4</text><rect x="336.5" y="80.5" width="63" height="63" rx="4.5" fill="#fbfbfd" stroke="#c8ceda" stroke-width="1"/><circle cx="368" cy="112" r="2.56" fill="#111318" opacity="0.55"/><circle cx="368" cy="87.68" r="3.2" fill="transparent" stroke="#d7dbe5" stroke-width="1"/><circle cx="392.32" cy="112" r="3.2" fill="transparent" stroke="#d7dbe5" stroke-width="1"/><circle cx="368" cy="136.32" r="3.2" fill="transparent" stroke="#d7dbe5" stroke-width="1"/><circle cx="343.68" cy="112" r="3.2" fill="transparent" stroke="#d7dbe5" stroke-width="1"/><text x="342" y="95" fill="#5f6470" font-size="11" font-family="ui-monospace, monospace">0</text><rect x="16.5" y="144.5" width="63" height="63" rx="4.5" fill="#fbfbfd" stroke="#c8ceda" stroke-width="1"/><circle cx="48" cy="176" r="2.56" fill="#111318" opacity="0.55"/><circle cx="48" cy="151.68" r="3.2" fill="transparent" stroke="#d7dbe5" stroke-width="1"/><circle cx="72.32" cy="176" r="3.2" fill="transparent" stroke="#d7dbe5" stroke-width="1"/><circle cx="48" cy="200.32" r="3.2" fill="transparent" stroke="#d7dbe5" stroke-width="1"/><circle cx="23.68" cy="176" r="3.2" fill="transparent" stroke="#d7dbe5" stroke-width="1"/><text x="22" y="159" fill="#5f6470" font-size="11" font-family="ui-monospace, monospace">0</text><rect x="80.5" y="144.5" width="63" height="63" rx="4.5" fill="#eef2ff" stroke="#c8ceda" stroke-width="1"/><line x1="112" y1="176" x2="112" y2="151.68" stroke="#111318" stroke-width="9" stroke-linecap="round" stroke-linejoin="round"/><line x1="112" y1="176" x2="112" y2="200.32" stroke="#111318" stroke-width="9" stroke-linecap="round" stroke-linejoin="round"/><circle cx="112" cy="176" r="2.56" fill="#111318" opacity="1"/><circle cx="112" cy="151.68" r="3.2" fill="#4f46e5" stroke="#4f46e5" stroke-width="1"/><circle cx="136.32" cy="176" r="3.2" fill="transparent" stroke="#d7dbe5" stroke-width="1"/><circle cx="112" cy="200.32" r="3.2" fill="#4f46e5" stroke="#4f46e5" stroke-width="1"/><circle cx="87.68" cy="176" r="3.2" fill="transparent" stroke="#d7dbe5" stroke-width="1"/><text x="86" y="159" fill="#4f46e5" font-size="11" font-family="ui-monospace, monospace">5</text><rect x="144.5" y="144.5" width="63" height="63" rx="4.5" fill="#fbfbfd" stroke="#c8ceda" stroke-width="1"/><circle cx="176" cy="176" r="2.56" fill="#111318" opacity="0.55"/><circle cx="176" cy="151.68" r="3.2" fill="transparent" stroke="#d7dbe5" stroke-width="1"/><circle cx="200.32" cy="176" r="3.2" fill="transparent" stroke="#d7dbe5" stroke-width="1"/><circle cx="176" cy="200.32" r="3.2" fill="transparent" stroke="#d7dbe5" stroke-width="1"/><circle cx="151.68" cy="176" r="3.2" fill="transparent" stroke="#d7dbe5" stroke-width="1"/><text x="150" y="159" fill="#5f6470" font-size="11" font-family="ui-monospace, monospace">0</text><rect x="208.5" y="144.5" width="63" height="63" rx="4.5" fill="#fbfbfd" stroke="#c8ceda" stroke-width="1"/><circle cx="240" cy="176" r="2.56" fill="#111318" opacity="0.55"/><circle cx="240" cy="151.68" r="3.2" fill="transparent" stroke="#d7dbe5" stroke-width="1"/><circle cx="264.32" cy="176" r="3.2" fill="transparent" stroke="#d7dbe5" stroke-width="1"/><circle cx="240" cy="200.32" r="3.2" fill="transparent" stroke="#d7dbe5" stroke-width="1"/><circle cx="215.68" cy="176" r="3.2" fill="transparent" stroke="#d7dbe5" stroke-width="1"/><text x="214" y="159" fill="#5f6470" font-size="11" font-family="ui-monospace, monospace">0</text><rect x="272.5" y="144.5" width="63" height="63" rx="4.5" fill="#eef2ff" stroke="#c8ceda" stroke-width="1"/><line x1="304" y1="176" x2="304" y2="151.68" stroke="#111318" stroke-width="9" stroke-linecap="round" stroke-linejoin="round"/><line x1="304" y1="176" x2="304" y2="200.32" stroke="#111318" stroke-width="9" stroke-linecap="round" stroke-linejoin="round"/><circle cx="304" cy="176" r="2.56" fill="#111318" opacity="1"/><circle cx="304" cy="151.68" r="3.2" fill="#4f46e5" stroke="#4f46e5" stroke-width="1"/><circle cx="328.32" cy="176" r="3.2" fill="transparent" stroke="#d7dbe5" stroke-width="1"/><circle cx="304" cy="200.32" r="3.2" fill="#4f46e5" stroke="#4f46e5" stroke-width="1"/><circle cx="279.68" cy="176" r="3.2" fill="transparent" stroke="#d7dbe5" stroke-width="1"/><text x="278" y="159" fill="#4f46e5" font-size="11" font-family="ui-monospace, monospace">5</text><rect x="336.5" y="144.5" width="63" height="63" rx="4.5" fill="#fbfbfd" stroke="#c8ceda" stroke-width="1"/><circle cx="368" cy="176" r="2.56" fill="#111318" opacity="0.55"/><circle cx="368" cy="151.68" r="3.2" fill="transparent" stroke="#d7dbe5" stroke-width="1"/><circle cx="392.32" cy="176" r="3.2" fill="transparent" stroke="#d7dbe5" stroke-width="1"/><circle cx="368" cy="200.32" r="3.2" fill="transparent" stroke="#d7dbe5" stroke-width="1"/><circle cx="343.68" cy="176" r="3.2" fill="transparent" stroke="#d7dbe5" stroke-width="1"/><text x="342" y="159" fill="#5f6470" font-size="11" font-family="ui-monospace, monospace">0</text><rect x="16.5" y="208.5" width="63" height="63" rx="4.5" fill="#fbfbfd" stroke="#c8ceda" stroke-width="1"/><circle cx="48" cy="240" r="2.56" fill="#111318" opacity="0.55"/><circle cx="48" cy="215.68" r="3.2" fill="transparent" stroke="#d7dbe5" stroke-width="1"/><circle cx="72.32" cy="240" r="3.2" fill="transparent" stroke="#d7dbe5" stroke-width="1"/><circle cx="48" cy="264.32" r="3.2" fill="transparent" stroke="#d7dbe5" stroke-width="1"/><circle cx="23.68" cy="240" r="3.2" fill="transparent" stroke="#d7dbe5" stroke-width="1"/><text x="22" y="223" fill="#5f6470" font-size="11" font-family="ui-monospace, monospace">0</text><rect x="80.5" y="208.5" width="63" height="63" rx="4.5" fill="#eef2ff" stroke="#c8ceda" stroke-width="1"/><line x1="112" y1="240" x2="112" y2="215.68" stroke="#111318" stroke-width="9" stroke-linecap="round" stroke-linejoin="round"/><line x1="112" y1="240" x2="136.32" y2="240" stroke="#111318" stroke-width="9" stroke-linecap="round" stroke-linejoin="round"/><line x1="112" y1="240" x2="112" y2="264.32" stroke="#111318" stroke-width="9" stroke-linecap="round" stroke-linejoin="round"/><circle cx="112" cy="240" r="2.56" fill="#111318" opacity="1"/><circle cx="112" cy="215.68" r="3.2" fill="#4f46e5" stroke="#4f46e5" stroke-width="1"/><circle cx="136.32" cy="240" r="3.2" fill="#4f46e5" stroke="#4f46e5" stroke-width="1"/><circle cx="112" cy="264.32" r="3.2" fill="#4f46e5" stroke="#4f46e5" stroke-width="1"/><circle cx="87.68" cy="240" r="3.2" fill="transparent" stroke="#d7dbe5" stroke-width="1"/><text x="86" y="223" fill="#4f46e5" font-size="11" font-family="ui-monospace, monospace">7</text><rect x="144.5" y="208.5" width="63" height="63" rx="4.5" fill="#eef2ff" stroke="#c8ceda" stroke-width="1"/><line x1="176" y1="240" x2="200.32" y2="240" stroke="#111318" stroke-width="9" stroke-linecap="round" stroke-linejoin="round"/><line x1="176" y1="240" x2="151.68" y2="240" stroke="#111318" stroke-width="9" stroke-linecap="round" stroke-linejoin="round"/><circle cx="176" cy="240" r="2.56" fill="#111318" opacity="1"/><circle cx="176" cy="215.68" r="3.2" fill="transparent" stroke="#d7dbe5" stroke-width="1"/><circle cx="200.32" cy="240" r="3.2" fill="#4f46e5" stroke="#4f46e5" stroke-width="1"/><circle cx="176" cy="264.32" r="3.2" fill="transparent" stroke="#d7dbe5" stroke-width="1"/><circle cx="151.68" cy="240" r="3.2" fill="#4f46e5" stroke="#4f46e5" stroke-width="1"/><text x="150" y="223" fill="#4f46e5" font-size="11" font-family="ui-monospace, monospace">A</text><rect x="208.5" y="208.5" width="63" height="63" rx="4.5" fill="#eef2ff" stroke="#c8ceda" stroke-width="1"/><line x1="240" y1="240" x2="264.32" y2="240" stroke="#111318" stroke-width="9" stroke-linecap="round" stroke-linejoin="round"/><line x1="240" y1="240" x2="215.68" y2="240" stroke="#111318" stroke-width="9" stroke-linecap="round" stroke-linejoin="round"/><circle cx="240" cy="240" r="2.56" fill="#111318" opacity="1"/><circle cx="240" cy="215.68" r="3.2" fill="transparent" stroke="#d7dbe5" stroke-width="1"/><circle cx="264.32" cy="240" r="3.2" fill="#4f46e5" stroke="#4f46e5" stroke-width="1"/><circle cx="240" cy="264.32" r="3.2" fill="transparent" stroke="#d7dbe5" stroke-width="1"/><circle cx="215.68" cy="240" r="3.2" fill="#4f46e5" stroke="#4f46e5" stroke-width="1"/><text x="214" y="223" fill="#4f46e5" font-size="11" font-family="ui-monospace, monospace">A</text><rect x="272.5" y="208.5" width="63" height="63" rx="4.5" fill="#eef2ff" stroke="#c8ceda" stroke-width="1"/><line x1="304" y1="240" x2="304" y2="215.68" stroke="#111318" stroke-width="9" stroke-linecap="round" stroke-linejoin="round"/><line x1="304" y1="240" x2="304" y2="264.32" stroke="#111318" stroke-width="9" stroke-linecap="round" stroke-linejoin="round"/><line x1="304" y1="240" x2="279.68" y2="240" stroke="#111318" stroke-width="9" stroke-linecap="round" stroke-linejoin="round"/><circle cx="304" cy="240" r="2.56" fill="#111318" opacity="1"/><circle cx="304" cy="215.68" r="3.2" fill="#4f46e5" stroke="#4f46e5" stroke-width="1"/><circle cx="328.32" cy="240" r="3.2" fill="transparent" stroke="#d7dbe5" stroke-width="1"/><circle cx="304" cy="264.32" r="3.2" fill="#4f46e5" stroke="#4f46e5" stroke-width="1"/><circle cx="279.68" cy="240" r="3.2" fill="#4f46e5" stroke="#4f46e5" stroke-width="1"/><text x="278" y="223" fill="#4f46e5" font-size="11" font-family="ui-monospace, monospace">D</text><rect x="336.5" y="208.5" width="63" height="63" rx="4.5" fill="#fbfbfd" stroke="#c8ceda" stroke-width="1"/><circle cx="368" cy="240" r="2.56" fill="#111318" opacity="0.55"/><circle cx="368" cy="215.68" r="3.2" fill="transparent" stroke="#d7dbe5" stroke-width="1"/><circle cx="392.32" cy="240" r="3.2" fill="transparent" stroke="#d7dbe5" stroke-width="1"/><circle cx="368" cy="264.32" r="3.2" fill="transparent" stroke="#d7dbe5" stroke-width="1"/><circle cx="343.68" cy="240" r="3.2" fill="transparent" stroke="#d7dbe5" stroke-width="1"/><text x="342" y="223" fill="#5f6470" font-size="11" font-family="ui-monospace, monospace">0</text><rect x="16.5" y="272.5" width="63" height="63" rx="4.5" fill="#fbfbfd" stroke="#c8ceda" stroke-width="1"/><circle cx="48" cy="304" r="2.56" fill="#111318" opacity="0.55"/><circle cx="48" cy="279.68" r="3.2" fill="transparent" stroke="#d7dbe5" stroke-width="1"/><circle cx="72.32" cy="304" r="3.2" fill="transparent" stroke="#d7dbe5" stroke-width="1"/><circle cx="48" cy="328.32" r="3.2" fill="transparent" stroke="#d7dbe5" stroke-width="1"/><circle cx="23.68" cy="304" r="3.2" fill="transparent" stroke="#d7dbe5" stroke-width="1"/><text x="22" y="287" fill="#5f6470" font-size="11" font-family="ui-monospace, monospace">0</text><rect x="80.5" y="272.5" width="63" height="63" rx="4.5" fill="#eef2ff" stroke="#c8ceda" stroke-width="1"/><line x1="112" y1="304" x2="112" y2="279.68" stroke="#111318" stroke-width="9" stroke-linecap="round" stroke-linejoin="round"/><line x1="112" y1="304" x2="112" y2="328.32" stroke="#111318" stroke-width="9" stroke-linecap="round" stroke-linejoin="round"/><circle cx="112" cy="304" r="2.56" fill="#111318" opacity="1"/><circle cx="112" cy="279.68" r="3.2" fill="#4f46e5" stroke="#4f46e5" stroke-width="1"/><circle cx="136.32" cy="304" r="3.2" fill="transparent" stroke="#d7dbe5" stroke-width="1"/><circle cx="112" cy="328.32" r="3.2" fill="#4f46e5" stroke="#4f46e5" stroke-width="1"/><circle cx="87.68" cy="304" r="3.2" fill="transparent" stroke="#d7dbe5" stroke-width="1"/><text x="86" y="287" fill="#4f46e5" font-size="11" font-family="ui-monospace, monospace">5</text><rect x="144.5" y="272.5" width="63" height="63" rx="4.5" fill="#fbfbfd" stroke="#c8ceda" stroke-width="1"/><circle cx="176" cy="304" r="2.56" fill="#111318" opacity="0.55"/><circle cx="176" cy="279.68" r="3.2" fill="transparent" stroke="#d7dbe5" stroke-width="1"/><circle cx="200.32" cy="304" r="3.2" fill="transparent" stroke="#d7dbe5" stroke-width="1"/><circle cx="176" cy="328.32" r="3.2" fill="transparent" stroke="#d7dbe5" stroke-width="1"/><circle cx="151.68" cy="304" r="3.2" fill="transparent" stroke="#d7dbe5" stroke-width="1"/><text x="150" y="287" fill="#5f6470" font-size="11" font-family="ui-monospace, monospace">0</text><rect x="208.5" y="272.5" width="63" height="63" rx="4.5" fill="#fbfbfd" stroke="#c8ceda" stroke-width="1"/><circle cx="240" cy="304" r="2.56" fill="#111318" opacity="0.55"/><circle cx="240" cy="279.68" r="3.2" fill="transparent" stroke="#d7dbe5" stroke-width="1"/><circle cx="264.32" cy="304" r="3.2" fill="transparent" stroke="#d7dbe5" stroke-width="1"/><circle cx="240" cy="328.32" r="3.2" fill="transparent" stroke="#d7dbe5" stroke-width="1"/><circle cx="215.68" cy="304" r="3.2" fill="transparent" stroke="#d7dbe5" stroke-width="1"/><text x="214" y="287" fill="#5f6470" font-size="11" font-family="ui-monospace, monospace">0</text><rect x="272.5" y="272.5" width="63" height="63" rx="4.5" fill="#eef2ff" stroke="#c8ceda" stroke-width="1"/><line x1="304" y1="304" x2="304" y2="279.68" stroke="#111318" stroke-width="9" stroke-linecap="round" stroke-linejoin="round"/><line x1="304" y1="304" x2="304" y2="328.32" stroke="#111318" stroke-width="9" stroke-linecap="round" stroke-linejoin="round"/><circle cx="304" cy="304" r="2.56" fill="#111318" opacity="1"/><circle cx="304" cy="279.68" r="3.2" fill="#4f46e5" stroke="#4f46e5" stroke-width="1"/><circle cx="328.32" cy="304" r="3.2" fill="transparent" stroke="#d7dbe5" stroke-width="1"/><circle cx="304" cy="328.32" r="3.2" fill="#4f46e5" stroke="#4f46e5" stroke-width="1"/><circle cx="279.68" cy="304" r="3.2" fill="transparent" stroke="#d7dbe5" stroke-width="1"/><text x="278" y="287" fill="#4f46e5" font-size="11" font-family="ui-monospace, monospace">5</text><rect x="336.5" y="272.5" width="63" height="63" rx="4.5" fill="#fbfbfd" stroke="#c8ceda" stroke-width="1"/><circle cx="368" cy="304" r="2.56" fill="#111318" opacity="0.55"/><circle cx="368" cy="279.68" r="3.2" fill="transparent" stroke="#d7dbe5" stroke-width="1"/><circle cx="392.32" cy="304" r="3.2" fill="transparent" stroke="#d7dbe5" stroke-width="1"/><circle cx="368" cy="328.32" r="3.2" fill="transparent" stroke="#d7dbe5" stroke-width="1"/><circle cx="343.68" cy="304" r="3.2" fill="transparent" stroke="#d7dbe5" stroke-width="1"/><text x="342" y="287" fill="#5f6470" font-size="11" font-family="ui-monospace, monospace">0</text><rect x="16.5" y="336.5" width="63" height="63" rx="4.5" fill="#fbfbfd" stroke="#c8ceda" stroke-width="1"/><circle cx="48" cy="368" r="2.56" fill="#111318" opacity="0.55"/><circle cx="48" cy="343.68" r="3.2" fill="transparent" stroke="#d7dbe5" stroke-width="1"/><circle cx="72.32" cy="368" r="3.2" fill="transparent" stroke="#d7dbe5" stroke-width="1"/><circle cx="48" cy="392.32" r="3.2" fill="transparent" stroke="#d7dbe5" stroke-width="1"/><circle cx="23.68" cy="368" r="3.2" fill="transparent" stroke="#d7dbe5" stroke-width="1"/><text x="22" y="351" fill="#5f6470" font-size="11" font-family="ui-monospace, monospace">0</text><rect x="80.5" y="336.5" width="63" height="63" rx="4.5" fill="#eef2ff" stroke="#c8ceda" stroke-width="1"/><line x1="112" y1="368" x2="112" y2="343.68" stroke="#111318" stroke-width="9" stroke-linecap="round" stroke-linejoin="round"/><circle cx="112" cy="368" r="2.56" fill="#111318" opacity="1"/><circle cx="112" cy="343.68" r="3.2" fill="#4f46e5" stroke="#4f46e5" stroke-width="1"/><circle cx="136.32" cy="368" r="3.2" fill="transparent" stroke="#d7dbe5" stroke-width="1"/><circle cx="112" cy="392.32" r="3.2" fill="transparent" stroke="#d7dbe5" stroke-width="1"/><circle cx="87.68" cy="368" r="3.2" fill="transparent" stroke="#d7dbe5" stroke-width="1"/><text x="86" y="351" fill="#4f46e5" font-size="11" font-family="ui-monospace, monospace">1</text><rect x="144.5" y="336.5" width="63" height="63" rx="4.5" fill="#fbfbfd" stroke="#c8ceda" stroke-width="1"/><circle cx="176" cy="368" r="2.56" fill="#111318" opacity="0.55"/><circle cx="176" cy="343.68" r="3.2" fill="transparent" stroke="#d7dbe5" stroke-width="1"/><circle cx="200.32" cy="368" r="3.2" fill="transparent" stroke="#d7dbe5" stroke-width="1"/><circle cx="176" cy="392.32" r="3.2" fill="transparent" stroke="#d7dbe5" stroke-width="1"/><circle cx="151.68" cy="368" r="3.2" fill="transparent" stroke="#d7dbe5" stroke-width="1"/><text x="150" y="351" fill="#5f6470" font-size="11" font-family="ui-monospace, monospace">0</text><rect x="208.5" y="336.5" width="63" height="63" rx="4.5" fill="#fbfbfd" stroke="#c8ceda" stroke-width="1"/><circle cx="240" cy="368" r="2.56" fill="#111318" opacity="0.55"/><circle cx="240" cy="343.68" r="3.2" fill="transparent" stroke="#d7dbe5" stroke-width="1"/><circle cx="264.32" cy="368" r="3.2" fill="transparent" stroke="#d7dbe5" stroke-width="1"/><circle cx="240" cy="392.32" r="3.2" fill="transparent" stroke="#d7dbe5" stroke-width="1"/><circle cx="215.68" cy="368" r="3.2" fill="transparent" stroke="#d7dbe5" stroke-width="1"/><text x="214" y="351" fill="#5f6470" font-size="11" font-family="ui-monospace, monospace">0</text><rect x="272.5" y="336.5" width="63" height="63" rx="4.5" fill="#eef2ff" stroke="#c8ceda" stroke-width="1"/><line x1="304" y1="368" x2="304" y2="343.68" stroke="#111318" stroke-width="9" stroke-linecap="round" stroke-linejoin="round"/><circle cx="304" cy="368" r="2.56" fill="#111318" opacity="1"/><circle cx="304" cy="343.68" r="3.2" fill="#4f46e5" stroke="#4f46e5" stroke-width="1"/><circle cx="328.32" cy="368" r="3.2" fill="transparent" stroke="#d7dbe5" stroke-width="1"/><circle cx="304" cy="392.32" r="3.2" fill="transparent" stroke="#d7dbe5" stroke-width="1"/><circle cx="279.68" cy="368" r="3.2" fill="transparent" stroke="#d7dbe5" stroke-width="1"/><text x="278" y="351" fill="#4f46e5" font-size="11" font-family="ui-monospace, monospace">1</text><rect x="336.5" y="336.5" width="63" height="63" rx="4.5" fill="#fbfbfd" stroke="#c8ceda" stroke-width="1"/><circle cx="368" cy="368" r="2.56" fill="#111318" opacity="0.55"/><circle cx="368" cy="343.68" r="3.2" fill="transparent" stroke="#d7dbe5" stroke-width="1"/><circle cx="392.32" cy="368" r="3.2" fill="transparent" stroke="#d7dbe5" stroke-width="1"/><circle cx="368" cy="392.32" r="3.2" fill="transparent" stroke="#d7dbe5" stroke-width="1"/><circle cx="343.68" cy="368" r="3.2" fill="transparent" stroke="#d7dbe5" stroke-width="1"/><text x="342" y="351" fill="#5f6470" font-size="11" font-family="ui-monospace, monospace">0</text><text x="16" y="13" fill="#111318" font-size="12" font-family="ui-sans-serif, system-ui" font-weight="700">Glyph: H</text></svg>